<svg  fill="none"  xmlns="http://www.w3.org/2000/svg">
<svg id='Box' width="782" height="535" viewBox="0 0 782 535" fill="none" xmlns="http://www.w3.org/2000/svg">
<path d="M517.221 25.5H742.721C750.453 25.5 756.721 31.768 756.721 39.5V496C756.721 503.732 750.563 510 742.831 510C487.223 510 115.21 510 39.4763 510C31.7443 510 25.7209 503.732 25.7209 496V39.5C25.7209 31.768 31.989 25.5 39.7209 25.5H266.721M517.221 25.5V258L397.026 203.626C393.338 201.958 389.108 201.967 385.428 203.652L266.721 258V25.5M517.221 25.5H266.721" stroke="#FF9900" stroke-width="50"/>
</svg>




<symbol id='Dolly' viewBox='-2500 0 4500 4500'>
  <path d="M513.721 903C513.721 951.877 474.098 991.5 425.221 991.5C376.344 991.5 336.721 951.877 336.721 903C336.721 854.123 376.344 814.5 425.221 814.5C474.098 814.5 513.721 854.123 513.721 903ZM391.281 903C391.281 921.744 406.477 936.94 425.221 936.94C443.965 936.94 459.161 921.744 459.161 903C459.161 884.256 443.965 869.06 425.221 869.06C406.477 869.06 391.281 884.256 391.281 903Z" fill="#FF9900"/>
  <path d="M1052.72 903C1052.72 951.877 1013.1 991.5 964.221 991.5C915.344 991.5 875.721 951.877 875.721 903C875.721 854.123 915.344 814.5 964.221 814.5C1013.1 814.5 1052.72 854.123 1052.72 903ZM930.281 903C930.281 921.744 945.477 936.94 964.221 936.94C982.965 936.94 998.161 921.744 998.161 903C998.161 884.256 982.965 869.06 964.221 869.06C945.477 869.06 930.281 884.256 930.281 903Z" fill="#FF9900"/>
  <path d="M0.220861 45.5C0.620861 56.3 10.0542 60.3333 14.7209 61H184.221V844.5C184.221 857.7 194.888 861 200.221 861L1215.72 861.5C1227.72 861.5 1230.72 851.167 1230.72 846V814.5C1230.72 802.5 1220.72 799.5 1215.72 799.5H246.721V14.5C246.721 4.5 236.721 0.666667 231.721 0H14.7209C1.52084 0 -0.445815 9.66667 0.220861 14.5C0.054194 20.3333 -0.179139 34.7 0.220861 45.5Z" fill="#FF9900"/>
  <path d="M848.221 215.5H1073.72C1081.45 215.5 1087.72 221.768 1087.72 229.5V686C1087.72 693.732 1081.56 700 1073.83 700C818.223 700 446.21 700 370.476 700C362.744 700 356.721 693.732 356.721 686V229.5C356.721 221.768 362.989 215.5 370.721 215.5H597.721M848.221 215.5V448L728.026 393.626C724.338 391.958 720.108 391.967 716.428 393.652L597.721 448V215.5M848.221 215.5H597.721" stroke="#FF9900" stroke-width="50"/>
</symbol>

<symbol id='Dolly-empty' viewBox='0 0 2000 2000'>
  <path d="M513.721 903C513.721 951.877 474.098 991.5 425.221 991.5C376.344 991.5 336.721 951.877 336.721 903C336.721 854.123 376.344 814.5 425.221 814.5C474.098 814.5 513.721 854.123 513.721 903ZM391.281 903C391.281 921.744 406.477 936.94 425.221 936.94C443.965 936.94 459.161 921.744 459.161 903C459.161 884.256 443.965 869.06 425.221 869.06C406.477 869.06 391.281 884.256 391.281 903Z" fill="#FF9900"/>
  <path d="M1052.72 903C1052.72 951.877 1013.1 991.5 964.221 991.5C915.344 991.5 875.721 951.877 875.721 903C875.721 854.123 915.344 814.5 964.221 814.5C1013.1 814.5 1052.72 854.123 1052.72 903ZM930.281 903C930.281 921.744 945.477 936.94 964.221 936.94C982.965 936.94 998.161 921.744 998.161 903C998.161 884.256 982.965 869.06 964.221 869.06C945.477 869.06 930.281 884.256 930.281 903Z" fill="#FF9900"/>
  <path d="M0.220861 45.5C0.620861 56.3 10.0542 60.3333 14.7209 61H184.221V844.5C184.221 857.7 194.888 861 200.221 861L1215.72 861.5C1227.72 861.5 1230.72 851.167 1230.72 846V814.5C1230.72 802.5 1220.72 799.5 1215.72 799.5H246.721V14.5C246.721 4.5 236.721 0.666667 231.721 0H14.7209C1.52084 0 -0.445815 9.66667 0.220861 14.5C0.054194 20.3333 -0.179139 34.7 0.220861 45.5Z" fill="#FF9900"/>
</symbol>

<!-- <symbol id="Box" viewBox='0 0 1500 1500' >
<path d="M517.221 25.5H742.721C750.453 25.5 756.721 31.768 756.721 39.5V496C756.721 503.732 750.563 510 742.831 510C487.223 510 115.21 510 39.4763 510C31.7443 510 25.7209 503.732 25.7209 496V39.5C25.7209 31.768 31.989 25.5 39.7209 25.5H266.721M517.221 25.5V258L397.026 203.626C393.338 201.958 389.108 201.967 385.428 203.652L266.721 258V25.5M517.221 25.5H266.721" stroke="#FF9900" stroke-width="50"/>
</symbol> -->



</svg>


